<svg width="23" height="23" viewBox="0 0 23 23" fill="none" xmlns="http://www.w3.org/2000/svg">
<path fill-rule="evenodd" clip-rule="evenodd" d="M17.0625 9C17.0625 13.4528 13.4528 17.0625 9 17.0625C4.5472 17.0625 0.9375 13.4528 0.9375 9C0.9375 4.5472 4.5472 0.9375 9 0.9375C13.4528 0.9375 17.0625 4.5472 17.0625 9ZM14.6238 16.027C13.0832 17.2616 11.1278 18 9 18C4.02944 18 0 13.9706 0 9C0 4.02944 4.02944 0 9 0C13.9706 0 18 4.02944 18 9C18 11.1278 17.2616 13.0831 16.027 14.6238C16.0723 14.659 16.1152 14.6986 16.1551 14.7426L21.8121 20.9854C22.1829 21.3946 22.1518 22.027 21.7426 22.3979C21.3333 22.7687 20.7009 22.7376 20.33 22.3283L14.673 16.0855C14.6558 16.0665 14.6394 16.0469 14.6238 16.027Z" fill=""/>
</svg>
